<mxfile host="app.diagrams.net" modified="2023-05-04T07:02:51.479Z" agent="5.0 (Macintosh; Intel Mac OS X 10_15_7) AppleWebKit/537.36 (KHTML, like Gecko) Chrome/112.0.0.0 Safari/537.36" version="20.8.3" etag="rX_YJ6t9yj-XxLwA7QgH" type="github">
  <diagram id="zD070McckD1uJFGpWosi" name="第 1 页">
    <mxGraphModel dx="1994" dy="1051" grid="1" gridSize="10" guides="1" tooltips="1" connect="1" arrows="1" fold="1" page="0" pageScale="1" pageWidth="827" pageHeight="1169" math="0" shadow="0">
      <root>
        <mxCell id="0" />
        <mxCell id="1" parent="0" />
        <mxCell id="2XtwAetA3BYCpZDTEH_Z-1" value="&lt;b&gt;G42 Cloud&lt;/b&gt;" style="rounded=0;whiteSpace=wrap;html=1;dashed=1;verticalAlign=top;labelPosition=center;verticalLabelPosition=bottom;align=center;" parent="1" vertex="1">
          <mxGeometry x="-380" y="-220" width="1200" height="610" as="geometry" />
        </mxCell>
        <mxCell id="2XtwAetA3BYCpZDTEH_Z-2" value="" style="rounded=0;whiteSpace=wrap;html=1;dashed=1;verticalAlign=top;labelPosition=center;verticalLabelPosition=bottom;align=center;" parent="1" vertex="1">
          <mxGeometry x="-700" y="210" width="240" height="110" as="geometry" />
        </mxCell>
        <mxCell id="2XtwAetA3BYCpZDTEH_Z-3" value="" style="rounded=0;whiteSpace=wrap;html=1;dashed=1;" parent="1" vertex="1">
          <mxGeometry x="-10" y="-10" width="820" height="210" as="geometry" />
        </mxCell>
        <mxCell id="2XtwAetA3BYCpZDTEH_Z-4" value="&lt;span style=&quot;font-size: 16px&quot;&gt;&lt;b&gt;VM CPU server * 3&lt;br&gt;（as K8S Master Node）&amp;nbsp;&lt;br&gt;&lt;/b&gt;&lt;/span&gt;" style="text;html=1;strokeColor=none;fillColor=none;align=center;verticalAlign=middle;whiteSpace=wrap;rounded=0;dashed=1;" parent="1" vertex="1">
          <mxGeometry x="145.64" y="159.5" width="193.75" height="20" as="geometry" />
        </mxCell>
        <mxCell id="2XtwAetA3BYCpZDTEH_Z-5" value="&lt;b&gt;&lt;font style=&quot;font-size: 16px&quot;&gt;VM GPU server&amp;nbsp;&lt;/font&gt;&lt;/b&gt;&lt;b&gt;&lt;font style=&quot;font-size: 16px&quot;&gt;* 4&lt;/font&gt;&lt;/b&gt;&lt;b&gt;&lt;font style=&quot;font-size: 16px&quot;&gt;&lt;br&gt;（as K8S Worker node）&amp;nbsp;&lt;br&gt;&lt;/font&gt;&lt;/b&gt;" style="text;html=1;strokeColor=none;fillColor=none;align=center;verticalAlign=middle;whiteSpace=wrap;rounded=0;dashed=1;" parent="1" vertex="1">
          <mxGeometry x="369.75" y="164.5" width="228.25" height="20" as="geometry" />
        </mxCell>
        <mxCell id="2XtwAetA3BYCpZDTEH_Z-6" value="" style="html=1;outlineConnect=0;fillColor=#CCCCCC;strokeColor=#6881B3;gradientColor=none;gradientDirection=north;strokeWidth=2;shape=mxgraph.networks.cloud;fontColor=#ffffff;" parent="1" vertex="1">
          <mxGeometry x="-579" y="-167.5" width="100" height="50" as="geometry" />
        </mxCell>
        <mxCell id="2XtwAetA3BYCpZDTEH_Z-7" value="" style="fontColor=#0066CC;verticalAlign=top;verticalLabelPosition=bottom;labelPosition=center;align=center;html=1;outlineConnect=0;fillColor=#CCCCCC;strokeColor=#6881B3;gradientColor=none;gradientDirection=north;strokeWidth=2;shape=mxgraph.networks.firewall;" parent="1" vertex="1">
          <mxGeometry x="-310" y="-170" width="70" height="70" as="geometry" />
        </mxCell>
        <mxCell id="2XtwAetA3BYCpZDTEH_Z-8" value="&lt;b&gt;&lt;font style=&quot;font-size: 16px&quot;&gt;&amp;nbsp;Cloud Storage Service&amp;nbsp;&lt;br&gt;Cloud NFS&lt;br&gt;Storage HA&lt;br&gt;&lt;/font&gt;&lt;/b&gt;" style="text;html=1;strokeColor=none;fillColor=none;align=center;verticalAlign=middle;whiteSpace=wrap;rounded=0;dashed=1;" parent="1" vertex="1">
          <mxGeometry x="-200" y="140" width="217.5" height="20" as="geometry" />
        </mxCell>
        <mxCell id="2XtwAetA3BYCpZDTEH_Z-9" value="" style="endArrow=none;html=1;strokeWidth=2;rounded=0;entryX=0.26;entryY=0.22;entryDx=0;entryDy=0;entryPerimeter=0;" parent="1" target="2XtwAetA3BYCpZDTEH_Z-25" edge="1">
          <mxGeometry width="50" height="50" relative="1" as="geometry">
            <mxPoint x="240" y="190" as="sourcePoint" />
            <mxPoint x="240" y="300" as="targetPoint" />
            <Array as="points" />
          </mxGeometry>
        </mxCell>
        <mxCell id="2XtwAetA3BYCpZDTEH_Z-10" value="" style="endArrow=none;html=1;strokeWidth=2;rounded=0;" parent="1" target="2XtwAetA3BYCpZDTEH_Z-25" edge="1">
          <mxGeometry width="50" height="50" relative="1" as="geometry">
            <mxPoint x="470.75" y="190" as="sourcePoint" />
            <mxPoint x="471" y="300" as="targetPoint" />
            <Array as="points">
              <mxPoint x="471" y="353" />
            </Array>
          </mxGeometry>
        </mxCell>
        <mxCell id="2XtwAetA3BYCpZDTEH_Z-11" value="" style="html=1;outlineConnect=0;fillColor=#CCCCCC;strokeColor=#6881B3;gradientColor=none;gradientDirection=north;strokeWidth=2;shape=mxgraph.networks.comm_link_edge;html=1;" parent="1" edge="1">
          <mxGeometry width="100" height="100" relative="1" as="geometry">
            <mxPoint x="-479" y="-135" as="sourcePoint" />
            <mxPoint x="-306.75" y="-145" as="targetPoint" />
            <Array as="points">
              <mxPoint x="-399" y="-150" />
            </Array>
          </mxGeometry>
        </mxCell>
        <mxCell id="2XtwAetA3BYCpZDTEH_Z-12" value="" style="endArrow=classic;html=1;strokeWidth=2;exitX=1;exitY=0.5;exitDx=0;exitDy=0;exitPerimeter=0;endFill=1;" parent="1" source="2XtwAetA3BYCpZDTEH_Z-7" target="2XtwAetA3BYCpZDTEH_Z-17" edge="1">
          <mxGeometry width="50" height="50" relative="1" as="geometry">
            <mxPoint x="-167.75" y="270" as="sourcePoint" />
            <mxPoint x="92.25" y="-135" as="targetPoint" />
          </mxGeometry>
        </mxCell>
        <mxCell id="2XtwAetA3BYCpZDTEH_Z-13" value="&lt;span style=&quot;font-size: 16px&quot;&gt;VPN or Internet&lt;/span&gt;" style="text;html=1;strokeColor=none;fillColor=none;align=center;verticalAlign=middle;whiteSpace=wrap;rounded=0;" parent="1" vertex="1">
          <mxGeometry x="-610" y="-190" width="203.25" height="20" as="geometry" />
        </mxCell>
        <mxCell id="2XtwAetA3BYCpZDTEH_Z-14" value="&lt;span style=&quot;font-size: 16px&quot;&gt;&lt;b&gt;Firewall&lt;/b&gt;&lt;/span&gt;" style="text;html=1;strokeColor=none;fillColor=none;align=center;verticalAlign=middle;whiteSpace=wrap;rounded=0;dashed=1;" parent="1" vertex="1">
          <mxGeometry x="-281" y="-200" width="170" height="20" as="geometry" />
        </mxCell>
        <mxCell id="2XtwAetA3BYCpZDTEH_Z-15" value="&lt;b&gt;Note：&lt;br&gt;&lt;/b&gt;1、OS requirement：CentOS 7.6&lt;br&gt;2、need Nvidia T4 GPU inside the server&lt;br&gt;3、need Nvidia driver CUDA 11.0&amp;nbsp; Tookit&lt;br&gt;4、Capability of T4-GPU/CPU cores / memory/ need to match requirements according to user scenario.&lt;br&gt;&amp;nbsp;" style="text;html=1;strokeColor=none;fillColor=none;align=left;verticalAlign=middle;whiteSpace=wrap;rounded=0;" parent="1" vertex="1">
          <mxGeometry x="550" y="10" width="260" height="70" as="geometry" />
        </mxCell>
        <mxCell id="2XtwAetA3BYCpZDTEH_Z-16" value="&lt;b&gt;Note：&lt;br&gt;&lt;/b&gt;1、OS requirement：CentOS 7.6&lt;br&gt;2、CPU cores &amp;amp; memory&amp;nbsp;need to match requirements according to u&lt;span&gt;ser scenario.&lt;br&gt;&lt;br&gt;&lt;/span&gt;" style="text;html=1;strokeColor=none;fillColor=none;align=left;verticalAlign=middle;whiteSpace=wrap;rounded=0;" parent="1" vertex="1">
          <mxGeometry x="-4" y="100" width="190" height="50" as="geometry" />
        </mxCell>
        <mxCell id="2XtwAetA3BYCpZDTEH_Z-17" value="" style="outlineConnect=0;fontColor=#232F3E;gradientColor=none;fillColor=#5A30B5;strokeColor=none;dashed=0;verticalLabelPosition=bottom;verticalAlign=top;align=center;html=1;fontSize=12;fontStyle=0;aspect=fixed;pointerEvents=1;shape=mxgraph.aws4.network_load_balancer;" parent="1" vertex="1">
          <mxGeometry x="194.51" y="-174" width="78" height="78" as="geometry" />
        </mxCell>
        <mxCell id="2XtwAetA3BYCpZDTEH_Z-18" value="" style="endArrow=classic;html=1;strokeWidth=2;" parent="1" source="2XtwAetA3BYCpZDTEH_Z-17" target="2XtwAetA3BYCpZDTEH_Z-27" edge="1">
          <mxGeometry width="50" height="50" relative="1" as="geometry">
            <mxPoint x="130" y="90" as="sourcePoint" />
            <mxPoint x="242.51000000000022" y="40" as="targetPoint" />
          </mxGeometry>
        </mxCell>
        <mxCell id="2XtwAetA3BYCpZDTEH_Z-19" value="&lt;b&gt;Load Balancer&amp;nbsp;&lt;/b&gt;" style="text;html=1;strokeColor=none;fillColor=none;align=center;verticalAlign=middle;whiteSpace=wrap;rounded=0;" parent="1" vertex="1">
          <mxGeometry x="128.39" y="-200" width="210" height="20" as="geometry" />
        </mxCell>
        <mxCell id="2XtwAetA3BYCpZDTEH_Z-20" value="" style="endArrow=classic;startArrow=classic;html=1;strokeWidth=2;entryX=0.88;entryY=0.5;entryDx=0;entryDy=0;entryPerimeter=0;strokeColor=#B3B3B3;" parent="1" edge="1">
          <mxGeometry width="50" height="50" relative="1" as="geometry">
            <mxPoint x="422" y="92.86334530688737" as="sourcePoint" />
            <mxPoint x="282.4100000000003" y="92.5" as="targetPoint" />
          </mxGeometry>
        </mxCell>
        <mxCell id="2XtwAetA3BYCpZDTEH_Z-21" value="control plane" style="text;html=1;strokeColor=none;fillColor=none;align=center;verticalAlign=middle;whiteSpace=wrap;rounded=0;" parent="1" vertex="1">
          <mxGeometry x="300.75" y="70" width="107" height="20" as="geometry" />
        </mxCell>
        <mxCell id="2XtwAetA3BYCpZDTEH_Z-22" value="" style="fontColor=#0066CC;verticalAlign=top;verticalLabelPosition=bottom;labelPosition=center;align=center;html=1;outlineConnect=0;fillColor=#CCCCCC;strokeColor=#6881B3;gradientColor=none;gradientDirection=north;strokeWidth=2;shape=mxgraph.networks.terminal;" parent="1" vertex="1">
          <mxGeometry x="-790" y="-174" width="80" height="65" as="geometry" />
        </mxCell>
        <mxCell id="2XtwAetA3BYCpZDTEH_Z-23" value="&lt;ul&gt;&lt;li&gt;&lt;span style=&quot;color: rgb(0 , 0 , 0) ; font-family: &amp;#34;helvetica&amp;#34; ; font-size: 11px ; font-style: normal ; letter-spacing: normal ; text-align: center ; text-indent: 0px ; text-transform: none ; word-spacing: 0px ; background-color: rgb(255 , 255 , 255) ; display: inline ; float: none&quot;&gt;&lt;b&gt;Webservice traffic for access&amp;nbsp; to console&lt;/b&gt;&lt;/span&gt;&lt;/li&gt;&lt;li&gt;&lt;span style=&quot;color: rgb(0 , 0 , 0) ; font-family: &amp;#34;helvetica&amp;#34; ; font-size: 11px ; font-style: normal ; letter-spacing: normal ; text-align: center ; text-indent: 0px ; text-transform: none ; word-spacing: 0px ; background-color: rgb(255 , 255 , 255) ; display: inline ; float: none&quot;&gt;&lt;b&gt;SSH to the servers in G42 for deployment&lt;/b&gt;&lt;/span&gt;&lt;/li&gt;&lt;li&gt;&lt;span style=&quot;color: rgb(0 , 0 , 0) ; font-family: &amp;#34;helvetica&amp;#34; ; font-size: 11px ; font-style: normal ; letter-spacing: normal ; text-align: center ; text-indent: 0px ; text-transform: none ; word-spacing: 0px ; background-color: rgb(255 , 255 , 255) ; display: inline ; float: none&quot;&gt;&lt;b&gt;Upload docker images&lt;/b&gt;&lt;/span&gt;&lt;/li&gt;&lt;/ul&gt;&lt;span style=&quot;color: rgb(0 , 0 , 0) ; font-family: &amp;#34;helvetica&amp;#34; ; font-size: 11px ; font-style: normal ; letter-spacing: normal ; text-align: center ; text-indent: 0px ; text-transform: none ; word-spacing: 0px ; background-color: rgb(255 , 255 , 255) ; display: inline ; float: none&quot;&gt;&lt;b&gt;&lt;br&gt;&lt;/b&gt;&lt;/span&gt;" style="text;whiteSpace=wrap;html=1;" parent="1" vertex="1">
          <mxGeometry x="-741.25" y="-260" width="294.5" height="70" as="geometry" />
        </mxCell>
        <mxCell id="2XtwAetA3BYCpZDTEH_Z-24" value="" style="endArrow=classic;html=1;strokeWidth=2;exitX=1;exitY=0.5;exitDx=0;exitDy=0;exitPerimeter=0;endFill=1;" parent="1" edge="1">
          <mxGeometry width="50" height="50" relative="1" as="geometry">
            <mxPoint x="-710" y="-135.5" as="sourcePoint" />
            <mxPoint x="-579" y="-135" as="targetPoint" />
          </mxGeometry>
        </mxCell>
        <mxCell id="2XtwAetA3BYCpZDTEH_Z-25" value="&lt;b style=&quot;color: rgb(0 , 0 , 0) ; font-size: 16px&quot;&gt;VPC&lt;br&gt;in Cloud&lt;br&gt;&lt;/b&gt;" style="html=1;outlineConnect=0;fillColor=#CCCCCC;strokeColor=#6881B3;gradientColor=none;gradientDirection=north;strokeWidth=2;shape=mxgraph.networks.cloud;fontColor=#ffffff;" parent="1" vertex="1">
          <mxGeometry x="208.39" y="320" width="130" height="65" as="geometry" />
        </mxCell>
        <mxCell id="2XtwAetA3BYCpZDTEH_Z-26" value="" style="outlineConnect=0;fontColor=#232F3E;gradientColor=#60A337;gradientDirection=north;fillColor=#277116;strokeColor=#ffffff;dashed=0;verticalLabelPosition=bottom;verticalAlign=top;align=center;html=1;fontSize=12;fontStyle=0;aspect=fixed;shape=mxgraph.aws4.resourceIcon;resIcon=mxgraph.aws4.elastic_file_system;" parent="1" vertex="1">
          <mxGeometry x="-130.25" y="46" width="78" height="78" as="geometry" />
        </mxCell>
        <mxCell id="2XtwAetA3BYCpZDTEH_Z-27" value="" style="fontColor=#0066CC;verticalAlign=top;verticalLabelPosition=bottom;labelPosition=center;align=center;html=1;outlineConnect=0;fillColor=#CCCCCC;strokeColor=#6881B3;gradientColor=none;gradientDirection=north;strokeWidth=2;shape=mxgraph.networks.virtual_server;" parent="1" vertex="1">
          <mxGeometry x="180" y="20" width="110" height="120" as="geometry" />
        </mxCell>
        <mxCell id="2XtwAetA3BYCpZDTEH_Z-28" value="" style="endArrow=none;html=1;strokeWidth=2;rounded=0;exitX=0.368;exitY=1.5;exitDx=0;exitDy=0;exitPerimeter=0;" parent="1" source="2XtwAetA3BYCpZDTEH_Z-8" target="2XtwAetA3BYCpZDTEH_Z-25" edge="1">
          <mxGeometry width="50" height="50" relative="1" as="geometry">
            <mxPoint x="70.75" y="214" as="sourcePoint" />
            <mxPoint x="-20" y="326.70833333333326" as="targetPoint" />
            <Array as="points">
              <mxPoint x="-120" y="349" />
            </Array>
          </mxGeometry>
        </mxCell>
        <mxCell id="2XtwAetA3BYCpZDTEH_Z-29" value="" style="fontColor=#0066CC;verticalAlign=top;verticalLabelPosition=bottom;labelPosition=center;align=center;html=1;outlineConnect=0;fillColor=#CCCCCC;strokeColor=#6881B3;gradientColor=none;gradientDirection=north;strokeWidth=2;shape=mxgraph.networks.virtual_server;" parent="1" vertex="1">
          <mxGeometry x="428.88" y="30" width="110" height="120" as="geometry" />
        </mxCell>
        <mxCell id="2XtwAetA3BYCpZDTEH_Z-30" value="GPU" style="html=1;fillColor=#5184F3;strokeColor=none;verticalAlign=top;labelPosition=center;verticalLabelPosition=bottom;align=center;spacingTop=-6;fontSize=11;fontStyle=1;fontColor=#999999;shape=mxgraph.gcp2.hexIcon;prIcon=gpu" parent="1" vertex="1">
          <mxGeometry x="420" y="79.75" width="66" height="58.5" as="geometry" />
        </mxCell>
        <mxCell id="2XtwAetA3BYCpZDTEH_Z-31" value="&lt;font style=&quot;font-size: 20px&quot;&gt;&lt;b&gt;Cloud Deployment in G42 Cloud&amp;nbsp;&lt;/b&gt;&lt;/font&gt;" style="text;html=1;strokeColor=none;fillColor=none;align=center;verticalAlign=middle;whiteSpace=wrap;rounded=0;" parent="1" vertex="1">
          <mxGeometry x="99.88" y="-260" width="350.25" height="20" as="geometry" />
        </mxCell>
        <mxCell id="2XtwAetA3BYCpZDTEH_Z-32" value="" style="fontColor=#0066CC;verticalAlign=top;verticalLabelPosition=bottom;labelPosition=center;align=center;html=1;outlineConnect=0;fillColor=#CCCCCC;strokeColor=#6881B3;gradientColor=none;gradientDirection=north;strokeWidth=2;shape=mxgraph.networks.terminal;" parent="1" vertex="1">
          <mxGeometry x="567.25" y="-167.5" width="80" height="65" as="geometry" />
        </mxCell>
        <mxCell id="2XtwAetA3BYCpZDTEH_Z-33" value="" style="endArrow=classic;html=1;strokeWidth=2;" parent="1" edge="1">
          <mxGeometry width="50" height="50" relative="1" as="geometry">
            <mxPoint x="564" y="-135" as="sourcePoint" />
            <mxPoint x="275.50878633223374" y="-135" as="targetPoint" />
          </mxGeometry>
        </mxCell>
        <mxCell id="2XtwAetA3BYCpZDTEH_Z-34" value="&lt;ul&gt;&lt;li&gt;&lt;span style=&quot;color: rgb(0 , 0 , 0) ; font-family: &amp;#34;helvetica&amp;#34; ; font-size: 11px ; font-style: normal ; letter-spacing: normal ; text-align: center ; text-indent: 0px ; text-transform: none ; word-spacing: 0px ; background-color: rgb(255 , 255 , 255) ; display: inline ; float: none&quot;&gt;&lt;b&gt;Webservice traffic for access&amp;nbsp; to console&lt;/b&gt;&lt;/span&gt;&lt;/li&gt;&lt;li&gt;&lt;span style=&quot;color: rgb(0 , 0 , 0) ; font-family: &amp;#34;helvetica&amp;#34; ; font-size: 11px ; font-style: normal ; letter-spacing: normal ; text-align: center ; text-indent: 0px ; text-transform: none ; word-spacing: 0px ; background-color: rgb(255 , 255 , 255) ; display: inline ; float: none&quot;&gt;&lt;b&gt;SSH to the server&amp;nbsp;&lt;br&gt;&lt;/b&gt;&lt;/span&gt;&lt;/li&gt;&lt;/ul&gt;&lt;span style=&quot;color: rgb(0 , 0 , 0) ; font-family: &amp;#34;helvetica&amp;#34; ; font-size: 11px ; font-style: normal ; letter-spacing: normal ; text-align: center ; text-indent: 0px ; text-transform: none ; word-spacing: 0px ; background-color: rgb(255 , 255 , 255) ; display: inline ; float: none&quot;&gt;&lt;b&gt;&lt;br&gt;&lt;/b&gt;&lt;/span&gt;" style="text;whiteSpace=wrap;html=1;" parent="1" vertex="1">
          <mxGeometry x="299.75" y="-217.5" width="320.5" height="55" as="geometry" />
        </mxCell>
        <mxCell id="2XtwAetA3BYCpZDTEH_Z-35" value="" style="endArrow=classic;html=1;exitX=0.07;exitY=1;exitDx=0;exitDy=0;exitPerimeter=0;strokeColor=#FF0000;dashed=1;" parent="1" source="2XtwAetA3BYCpZDTEH_Z-32" target="2XtwAetA3BYCpZDTEH_Z-26" edge="1">
          <mxGeometry width="50" height="50" relative="1" as="geometry">
            <mxPoint x="40" as="sourcePoint" />
            <mxPoint x="90" y="-50" as="targetPoint" />
            <Array as="points">
              <mxPoint x="573" y="-70" />
              <mxPoint x="-91" y="-70" />
            </Array>
          </mxGeometry>
        </mxCell>
        <mxCell id="2XtwAetA3BYCpZDTEH_Z-36" value="&lt;b style=&quot;font-family: &amp;#34;helvetica&amp;#34;&quot;&gt;&lt;font color=&quot;#ff0000&quot;&gt;1、Upload raw images to specific directory in Cloud NFS&amp;nbsp;&lt;/font&gt;&lt;/b&gt;&lt;span style=&quot;font-family: &amp;#34;helvetica&amp;#34;&quot;&gt;&lt;/span&gt;" style="edgeLabel;html=1;align=center;verticalAlign=middle;resizable=0;points=[];" parent="2XtwAetA3BYCpZDTEH_Z-35" vertex="1" connectable="0">
          <mxGeometry x="0.5881" y="-3" relative="1" as="geometry">
            <mxPoint x="100.50000000000001" y="-7" as="offset" />
          </mxGeometry>
        </mxCell>
        <mxCell id="2XtwAetA3BYCpZDTEH_Z-37" value="" style="endArrow=classic;html=1;strokeColor=#FF0000;dashed=1;entryX=0.818;entryY=0;entryDx=0;entryDy=0;entryPerimeter=0;" parent="1" source="2XtwAetA3BYCpZDTEH_Z-32" target="2XtwAetA3BYCpZDTEH_Z-27" edge="1">
          <mxGeometry width="50" height="50" relative="1" as="geometry">
            <mxPoint x="611.7799999999999" y="-96" as="sourcePoint" />
            <mxPoint x="-52.25456375838923" y="46.5" as="targetPoint" />
            <Array as="points">
              <mxPoint x="612" y="-30" />
              <mxPoint x="270" y="-30" />
            </Array>
          </mxGeometry>
        </mxCell>
        <mxCell id="2XtwAetA3BYCpZDTEH_Z-38" value="&lt;font color=&quot;#ff0000&quot;&gt;&lt;b style=&quot;font-family: &amp;#34;helvetica&amp;#34;&quot;&gt;2、Create Fuzzy task for images in the NFS to make Faces of person &amp;amp; P&lt;/b&gt;&lt;font face=&quot;helvetica&quot;&gt;&lt;span style=&quot;font-size: 11px&quot;&gt;&lt;b&gt;late of cars to be fuzzy&amp;nbsp;&lt;/b&gt;&lt;/span&gt;&lt;/font&gt;&lt;br&gt;&lt;/font&gt;&lt;span style=&quot;font-family: &amp;#34;helvetica&amp;#34;&quot;&gt;&lt;/span&gt;" style="edgeLabel;html=1;align=center;verticalAlign=middle;resizable=0;points=[];" parent="2XtwAetA3BYCpZDTEH_Z-37" vertex="1" connectable="0">
          <mxGeometry x="0.5881" y="-3" relative="1" as="geometry">
            <mxPoint x="225.43" y="-7" as="offset" />
          </mxGeometry>
        </mxCell>
        <mxCell id="2XtwAetA3BYCpZDTEH_Z-39" value="" style="endArrow=none;html=1;strokeColor=#FF0000;dashed=1;endFill=0;startArrow=classic;startFill=1;exitX=0.115;exitY=1.225;exitDx=0;exitDy=0;exitPerimeter=0;" parent="1" source="2XtwAetA3BYCpZDTEH_Z-4" edge="1">
          <mxGeometry width="50" height="50" relative="1" as="geometry">
            <mxPoint x="208.81023809523805" y="184.5" as="sourcePoint" />
            <mxPoint x="-62" y="170" as="targetPoint" />
            <Array as="points">
              <mxPoint x="168" y="230" />
              <mxPoint x="-60" y="230" />
            </Array>
          </mxGeometry>
        </mxCell>
        <mxCell id="2XtwAetA3BYCpZDTEH_Z-40" value="&lt;font color=&quot;#ff0000&quot;&gt;&lt;b style=&quot;font-family: &amp;#34;helvetica&amp;#34;&quot;&gt;3、Retrive raw images&lt;/b&gt;&lt;br&gt;&lt;/font&gt;&lt;span style=&quot;font-family: &amp;#34;helvetica&amp;#34;&quot;&gt;&lt;/span&gt;" style="edgeLabel;html=1;align=center;verticalAlign=middle;resizable=0;points=[];" parent="2XtwAetA3BYCpZDTEH_Z-39" vertex="1" connectable="0">
          <mxGeometry x="0.5881" y="-3" relative="1" as="geometry">
            <mxPoint x="84.18" y="-7" as="offset" />
          </mxGeometry>
        </mxCell>
        <mxCell id="2XtwAetA3BYCpZDTEH_Z-41" value="" style="curved=1;endArrow=classic;html=1;exitX=0.99;exitY=0.99;exitDx=0;exitDy=0;exitPerimeter=0;dashed=1;strokeColor=#FF0000;" parent="1" source="2XtwAetA3BYCpZDTEH_Z-29" target="2XtwAetA3BYCpZDTEH_Z-29" edge="1">
          <mxGeometry width="50" height="50" relative="1" as="geometry">
            <mxPoint x="590" y="180" as="sourcePoint" />
            <mxPoint x="640" y="130" as="targetPoint" />
            <Array as="points">
              <mxPoint x="600" y="149" />
              <mxPoint x="610" y="100" />
            </Array>
          </mxGeometry>
        </mxCell>
        <mxCell id="2XtwAetA3BYCpZDTEH_Z-42" value="&lt;font color=&quot;#ff0000&quot;&gt;4、Make Face of person &amp;amp; Plate&amp;nbsp; of&amp;nbsp; cars&lt;br&gt;in the image to be fuzzy&amp;nbsp;&lt;/font&gt;" style="edgeLabel;html=1;align=center;verticalAlign=middle;resizable=0;points=[];" parent="2XtwAetA3BYCpZDTEH_Z-41" vertex="1" connectable="0">
          <mxGeometry x="-0.0701" y="2" relative="1" as="geometry">
            <mxPoint x="57.400000000000006" as="offset" />
          </mxGeometry>
        </mxCell>
        <mxCell id="2XtwAetA3BYCpZDTEH_Z-43" value="" style="endArrow=classic;html=1;strokeColor=#FF0000;dashed=1;endFill=1;startArrow=none;startFill=0;exitX=0.379;exitY=1.075;exitDx=0;exitDy=0;exitPerimeter=0;" parent="1" source="2XtwAetA3BYCpZDTEH_Z-4" edge="1">
          <mxGeometry width="50" height="50" relative="1" as="geometry">
            <mxPoint x="94.92124999999987" y="194" as="sourcePoint" />
            <mxPoint x="-91" y="181" as="targetPoint" />
            <Array as="points">
              <mxPoint x="219" y="280" />
              <mxPoint x="-93" y="280" />
            </Array>
          </mxGeometry>
        </mxCell>
        <mxCell id="2XtwAetA3BYCpZDTEH_Z-44" value="&lt;font color=&quot;#ff0000&quot;&gt;&lt;b style=&quot;font-family: &amp;#34;helvetica&amp;#34;&quot;&gt;5、&lt;/b&gt;&lt;/font&gt;&lt;font color=&quot;#ff0000&quot; face=&quot;helvetica&quot;&gt;&lt;span style=&quot;font-size: 11px&quot;&gt;&lt;b&gt;Store processed fuzzy pictures&lt;/b&gt;&lt;/span&gt;&lt;/font&gt;" style="edgeLabel;html=1;align=center;verticalAlign=middle;resizable=0;points=[];" parent="2XtwAetA3BYCpZDTEH_Z-43" vertex="1" connectable="0">
          <mxGeometry x="0.5881" y="-3" relative="1" as="geometry">
            <mxPoint x="109" y="-7" as="offset" />
          </mxGeometry>
        </mxCell>
        <mxCell id="2XtwAetA3BYCpZDTEH_Z-45" value="" style="endArrow=classic;html=1;" parent="1" edge="1">
          <mxGeometry width="50" height="50" relative="1" as="geometry">
            <mxPoint x="-672.25" y="229.5" as="sourcePoint" />
            <mxPoint x="-582.25" y="229.5" as="targetPoint" />
          </mxGeometry>
        </mxCell>
        <mxCell id="2XtwAetA3BYCpZDTEH_Z-46" value="" style="endArrow=classic;html=1;dashed=1;strokeColor=#FF0000;" parent="1" edge="1">
          <mxGeometry width="50" height="50" relative="1" as="geometry">
            <mxPoint x="-672.25" y="262.5" as="sourcePoint" />
            <mxPoint x="-582.25" y="262.5" as="targetPoint" />
          </mxGeometry>
        </mxCell>
        <mxCell id="2XtwAetA3BYCpZDTEH_Z-47" value="business data flow" style="text;html=1;strokeColor=none;fillColor=none;align=center;verticalAlign=middle;whiteSpace=wrap;rounded=0;" parent="1" vertex="1">
          <mxGeometry x="-574.38" y="250" width="109.38" height="20" as="geometry" />
        </mxCell>
        <mxCell id="2XtwAetA3BYCpZDTEH_Z-48" value="logic connection" style="text;html=1;strokeColor=none;fillColor=none;align=center;verticalAlign=middle;whiteSpace=wrap;rounded=0;" parent="1" vertex="1">
          <mxGeometry x="-579.6899999999999" y="220" width="109.38" height="20" as="geometry" />
        </mxCell>
        <mxCell id="2XtwAetA3BYCpZDTEH_Z-50" value="&lt;span style=&quot;font-size: 14px&quot;&gt;&lt;b&gt;&lt;font color=&quot;#000000&quot;&gt;SoftWare Repository &lt;br&gt;for Container&lt;/font&gt;&lt;/b&gt;&lt;/span&gt;" style="outlineConnect=0;fontColor=#232F3E;gradientColor=none;fillColor=#D05C17;strokeColor=none;dashed=0;verticalLabelPosition=bottom;verticalAlign=top;align=center;html=1;fontSize=12;fontStyle=0;aspect=fixed;pointerEvents=1;shape=mxgraph.aws4.registry;" parent="1" vertex="1">
          <mxGeometry x="-309" y="184.5" width="78" height="78" as="geometry" />
        </mxCell>
        <mxCell id="2XtwAetA3BYCpZDTEH_Z-51" value="&lt;b&gt;&lt;font style=&quot;font-size: 14px&quot;&gt;Object Storage Service&lt;/font&gt;&lt;/b&gt;" style="outlineConnect=0;fontColor=#232F3E;gradientColor=#60A337;gradientDirection=north;fillColor=#277116;strokeColor=#ffffff;dashed=0;verticalLabelPosition=bottom;verticalAlign=top;align=center;html=1;fontSize=12;fontStyle=0;aspect=fixed;shape=mxgraph.aws4.resourceIcon;resIcon=mxgraph.aws4.s3;" parent="1" vertex="1">
          <mxGeometry x="-310" y="41" width="78" height="78" as="geometry" />
        </mxCell>
        <mxCell id="2XtwAetA3BYCpZDTEH_Z-52" value="" style="endArrow=classic;html=1;dashed=1;strokeColor=#0000CC;" parent="1" edge="1">
          <mxGeometry width="50" height="50" relative="1" as="geometry">
            <mxPoint x="-672.25" y="292.5" as="sourcePoint" />
            <mxPoint x="-582.25" y="292.5" as="targetPoint" />
          </mxGeometry>
        </mxCell>
        <mxCell id="2XtwAetA3BYCpZDTEH_Z-53" value="CICD data flow" style="text;html=1;strokeColor=none;fillColor=none;align=center;verticalAlign=middle;whiteSpace=wrap;rounded=0;" parent="1" vertex="1">
          <mxGeometry x="-583" y="277.5" width="109.38" height="20" as="geometry" />
        </mxCell>
        <mxCell id="2XtwAetA3BYCpZDTEH_Z-55" value="" style="endArrow=classic;html=1;dashed=1;strokeColor=#0000CC;exitX=0.5;exitY=1;exitDx=0;exitDy=0;exitPerimeter=0;" parent="1" source="2XtwAetA3BYCpZDTEH_Z-7" target="2XtwAetA3BYCpZDTEH_Z-51" edge="1">
          <mxGeometry width="50" height="50" relative="1" as="geometry">
            <mxPoint x="-662.25" y="302.5" as="sourcePoint" />
            <mxPoint x="-572.25" y="302.5" as="targetPoint" />
          </mxGeometry>
        </mxCell>
        <mxCell id="2XtwAetA3BYCpZDTEH_Z-56" value="&lt;b style=&quot;font-family: &amp;#34;helvetica&amp;#34;&quot;&gt;&lt;font color=&quot;#0000cc&quot;&gt;Upload docker images to OBS&amp;nbsp;&lt;/font&gt;&lt;/b&gt;" style="edgeLabel;html=1;align=center;verticalAlign=middle;resizable=0;points=[];" parent="1" vertex="1" connectable="0">
          <mxGeometry x="-259.99965384799725" y="-30" as="geometry" />
        </mxCell>
        <mxCell id="2XtwAetA3BYCpZDTEH_Z-57" value="" style="endArrow=classic;html=1;dashed=1;strokeColor=#0000CC;exitX=0.5;exitY=1;exitDx=0;exitDy=0;exitPerimeter=0;" parent="1" target="2XtwAetA3BYCpZDTEH_Z-50" edge="1">
          <mxGeometry width="50" height="50" relative="1" as="geometry">
            <mxPoint x="-272.57" y="138.25" as="sourcePoint" />
            <mxPoint x="-269.43666666666655" y="279.25" as="targetPoint" />
          </mxGeometry>
        </mxCell>
        <mxCell id="2XtwAetA3BYCpZDTEH_Z-58" value="" style="endArrow=classic;html=1;dashed=1;strokeColor=#0000CC;exitX=0.5;exitY=1;exitDx=0;exitDy=0;exitPerimeter=0;entryX=0.341;entryY=0.952;entryDx=0;entryDy=0;entryPerimeter=0;" parent="1" target="2XtwAetA3BYCpZDTEH_Z-3" edge="1">
          <mxGeometry width="50" height="50" relative="1" as="geometry">
            <mxPoint x="-271.69999999999993" y="297.5" as="sourcePoint" />
            <mxPoint x="20" y="270" as="targetPoint" />
            <Array as="points">
              <mxPoint x="-272" y="320" />
              <mxPoint x="270" y="320" />
            </Array>
          </mxGeometry>
        </mxCell>
        <mxCell id="2XtwAetA3BYCpZDTEH_Z-59" value="&lt;b style=&quot;font-family: &amp;#34;helvetica&amp;#34;&quot;&gt;&lt;font color=&quot;#0000cc&quot;&gt;Fetch docker images for deployment&amp;nbsp;&lt;/font&gt;&lt;/b&gt;" style="edgeLabel;html=1;align=center;verticalAlign=middle;resizable=0;points=[];" parent="1" vertex="1" connectable="0">
          <mxGeometry x="350.00034615200275" y="260" as="geometry" />
        </mxCell>
      </root>
    </mxGraphModel>
  </diagram>
</mxfile>
